Coordinates
version=1
nRows=27
nColumns=38
inDegrees=no

Units are S.I. units (second, meters, Newtons, ...)
If the header above contains a line with 'inDegrees', this indicates whether rotational values are in degrees (yes) or radians (no).

endheader
time	pelvis_tilt	pelvis_list	pelvis_rotation	pelvis_tx	pelvis_ty	pelvis_tz	hip_flexion_r	hip_adduction_r	hip_rotation_r	knee_angle_r	ankle_angle_r	subtalar_angle_r	mtp_angle_r	hip_flexion_l	hip_adduction_l	hip_rotation_l	knee_angle_l	ankle_angle_l	subtalar_angle_l	mtp_angle_l	lumbar_extension	lumbar_bending	lumbar_rotation	arm_flex_r	arm_add_r	arm_rot_r	elbow_flex_r	pro_sup_r	wrist_flex_r	wrist_dev_r	arm_flex_l	arm_add_l	arm_rot_l	elbow_flex_l	pro_sup_l	wrist_flex_l	wrist_dev_l
60.47	0.584752	1.50883	1.13412	0.629303	0.358983	1.04967	0.305778	-0.106373	-0.203929	0.514084	-0.272981	0	0	0.19821	-0.236213	-0.285899	0.385675	-0.235915	0	0	-0.352119	-0.0237007	0.0350679	0.567425	-0.631869	0.480469	1.22704	0.632481	0	0	0.50443	-0.399055	0.184079	1.26234	0.900131	0	0
60.48	0.559565	1.50577	1.16077	0.629507	0.35724	1.04813	0.317973	-0.109278	-0.205087	0.526594	-0.268861	0	0	0.21252	-0.239971	-0.288449	0.403101	-0.227561	0	0	-0.361069	-0.0247362	0.0318343	0.573182	-0.628435	0.477895	1.226	0.634479	0	0	0.507322	-0.399679	0.178966	1.26693	0.90895	0	0
60.49	0.543585	1.50362	1.17843	0.629681	0.355427	1.04665	0.328953	-0.1123	-0.206667	0.538529	-0.266876	0	0	0.225093	-0.243273	-0.288922	0.418038	-0.223528	0	0	-0.37095	-0.0255108	0.029804	0.577883	-0.626011	0.474226	1.22522	0.638689	0	0	0.51271	-0.399762	0.177438	1.26907	0.912633	0	0
60.5	0.531226	1.50128	1.19231	0.62989	0.35357	1.04503	0.340633	-0.11518	-0.207956	0.551254	-0.264933	0	0	0.238403	-0.247297	-0.28965	0.43409	-0.21944	0	0	-0.381013	-0.0263727	0.0277682	0.583149	-0.623531	0.471367	1.22416	0.64342	0	0	0.518228	-0.400136	0.175723	1.27171	0.916795	0	0
60.51	0.521344	1.4987	1.20347	0.630108	0.351686	1.04325	0.353137	-0.117918	-0.208493	0.564747	-0.263216	0	0	0.252519	-0.251941	-0.290783	0.451363	-0.215114	0	0	-0.390828	-0.0271157	0.0261556	0.588715	-0.62135	0.469282	1.22294	0.648329	0	0	0.523923	-0.400332	0.174199	1.27421	0.920648	0	0
60.52	0.512155	1.49605	1.2137	0.630319	0.34977	1.04133	0.366285	-0.120757	-0.208546	0.579028	-0.261645	0	0	0.267144	-0.25694	-0.292241	0.469587	-0.210705	0	0	-0.400765	-0.0277009	0.0247552	0.594133	-0.619127	0.465952	1.22204	0.65189	0	0	0.529713	-0.400497	0.172695	1.2768	0.923888	0	0
60.53	0.502604	1.49351	1.22393	0.630526	0.347817	1.03929	0.37968	-0.12377	-0.208255	0.593775	-0.259988	0	0	0.281797	-0.262057	-0.294121	0.488218	-0.20636	0	0	-0.410949	-0.0282777	0.0235618	0.599641	-0.616877	0.461855	1.22126	0.654968	0	0	0.535644	-0.400666	0.171192	1.27932	0.92657	0	0
60.54	0.491806	1.4906	1.23499	0.630755	0.345832	1.03708	0.393699	-0.126849	-0.207966	0.609037	-0.257546	0	0	0.297226	-0.267657	-0.296946	0.508092	-0.201307	0	0	-0.42079	-0.0289991	0.0225582	0.605402	-0.614622	0.458565	1.22058	0.660507	0	0	0.541471	-0.400877	0.169395	1.28195	0.929276	0	0
60.55	0.482652	1.48768	1.2442	0.631008	0.343851	1.03473	0.407675	-0.130126	-0.208665	0.624615	-0.254544	0	0	0.312756	-0.273603	-0.299985	0.528586	-0.195827	0	0	-0.430598	-0.0297976	0.0217222	0.611267	-0.6124	0.455968	1.21995	0.667149	0	0	0.547442	-0.400912	0.167383	1.28433	0.932419	0	0
60.56	0.474431	1.48471	1.2522	0.631297	0.341881	1.03225	0.421422	-0.133338	-0.209785	0.639852	-0.251003	0	0	0.328385	-0.279927	-0.303642	0.549775	-0.189786	0	0	-0.44052	-0.0306077	0.0211026	0.616763	-0.609846	0.451865	1.21964	0.672793	0	0	0.553424	-0.400838	0.165129	1.28681	0.935907	0	0
60.57	0.469019	1.48221	1.25728	0.631611	0.339914	1.02973	0.434353	-0.136396	-0.211236	0.654608	-0.24767	0	0	0.343388	-0.286487	-0.307282	0.570973	-0.184181	0	0	-0.451133	-0.0314061	0.0206915	0.622282	-0.607255	0.447034	1.2195	0.67743	0	0	0.55983	-0.400601	0.162942	1.28906	0.938663	0	0
60.58	0.466023	1.4799	1.25979	0.631965	0.337968	1.02712	0.447175	-0.139238	-0.212698	0.669497	-0.244321	0	0	0.358254	-0.293516	-0.311083	0.592682	-0.178449	0	0	-0.462028	-0.0322362	0.0204491	0.627959	-0.60471	0.442726	1.21944	0.68324	0	0	0.566505	-0.400519	0.160908	1.29122	0.941222	0	0
60.59	0.466048	1.47764	1.25907	0.632376	0.336041	1.02443	0.460167	-0.14163	-0.213974	0.684702	-0.240784	0	0	0.372986	-0.301092	-0.314926	0.614564	-0.172621	0	0	-0.47321	-0.0329572	0.020406	0.633673	-0.601992	0.437936	1.21955	0.688825	0	0	0.573269	-0.400577	0.158734	1.29348	0.943644	0	0
60.6	0.468574	1.47538	1.25556	0.63289	0.334122	1.02164	0.473162	-0.143291	-0.214453	0.699596	-0.236949	0	0	0.387659	-0.309185	-0.318708	0.636455	-0.166759	0	0	-0.484613	-0.0338485	0.0206165	0.639532	-0.599078	0.433274	1.21971	0.694871	0	0	0.580277	-0.40105	0.156871	1.29608	0.945626	0	0
60.61	0.473741	1.47292	1.24916	0.633484	0.332193	1.01871	0.486367	-0.144248	-0.214645	0.714567	-0.232768	0	0	0.402739	-0.317858	-0.322246	0.658808	-0.160845	0	0	-0.495922	-0.0347184	0.0210657	0.645633	-0.595842	0.428103	1.21959	0.700117	0	0	0.587521	-0.401647	0.154998	1.29878	0.947086	0	0
60.62	0.480951	1.47006	1.24081	0.634044	0.330242	1.01561	0.499995	-0.145069	-0.215405	0.729941	-0.228504	0	0	0.418696	-0.326844	-0.324777	0.681774	-0.154953	0	0	-0.506803	-0.035196	0.0215003	0.652019	-0.592709	0.423596	1.21941	0.705993	0	0	0.594827	-0.402079	0.15301	1.30127	0.948981	0	0
60.63	0.487274	1.46681	1.23338	0.634544	0.328239	1.01233	0.513918	-0.145643	-0.215805	0.744997	-0.224118	0	0	0.435597	-0.335622	-0.326204	0.705077	-0.149239	0	0	-0.517062	-0.0354716	0.0219779	0.658784	-0.589704	0.419861	1.21893	0.71212	0	0	0.602269	-0.402594	0.151435	1.30332	0.951465	0	0
60.64	0.492358	1.46352	1.22719	0.635017	0.326155	1.00894	0.52773	-0.145873	-0.215683	0.759774	-0.219654	0	0	0.453019	-0.344001	-0.326486	0.728406	-0.144046	0	0	-0.527344	-0.0357465	0.0224281	0.666039	-0.586779	0.416026	1.21824	0.717039	0	0	0.610234	-0.403037	0.149965	1.30498	0.953689	0	0
60.65	0.49436	1.45986	1.22385	0.635517	0.324034	1.00537	0.542544	-0.146329	-0.214895	0.775295	-0.214871	0	0	0.471323	-0.352561	-0.326872	0.752481	-0.138695	0	0	-0.537006	-0.036358	0.0229798	0.673473	-0.583657	0.412595	1.21721	0.723066	0	0	0.618514	-0.403337	0.148563	1.30625	0.955807	0	0
60.66	0.496179	1.45584	1.22017	0.636124	0.321998	1.00165	0.558514	-0.146893	-0.213576	0.791979	-0.210399	0	0	0.489858	-0.362076	-0.328096	0.777128	-0.133411	0	0	-0.546089	-0.0372374	0.0240361	0.680687	-0.580203	0.408394	1.21599	0.727715	0	0	0.62673	-0.403667	0.147289	1.3075	0.957504	0	0
60.67	0.497196	1.45199	1.21723	0.636748	0.319998	0.997873	0.574574	-0.14777	-0.212066	0.809008	-0.205861	0	0	0.508062	-0.371545	-0.329229	0.801471	-0.128286	0	0	-0.555244	-0.0382464	0.0252097	0.687743	-0.576497	0.403035	1.21463	0.731394	0	0	0.635222	-0.403973	0.146291	1.30847	0.959151	0	0
60.68	0.497619	1.44831	1.21519	0.637304	0.317957	0.99404	0.590441	-0.148813	-0.210935	0.826215	-0.200914	0	0	0.526288	-0.380451	-0.329494	0.825456	-0.123343	0	0	-0.564528	-0.0391714	0.0261081	0.695313	-0.572925	0.398421	1.21297	0.736367	0	0	0.644227	-0.404071	0.145401	1.30888	0.960932	0	0
60.69	0.497221	1.44466	1.2143	0.637814	0.315874	0.990123	0.606117	-0.149897	-0.210049	0.843165	-0.195636	0	0	0.544697	-0.388825	-0.328724	0.848922	-0.1186	0	0	-0.573821	-0.0400561	0.0267813	0.703234	-0.569644	0.394702	1.21131	0.742755	0	0	0.653766	-0.404045	0.14476	1.30885	0.962981	0	0
60.7	0.49695	1.4414	1.2138	0.638235	0.313732	0.986163	0.621155	-0.151314	-0.209519	0.859682	-0.190119	0	0	0.562872	-0.396532	-0.326856	0.871634	-0.114068	0	0	-0.583695	-0.0408222	0.0271153	0.711456	-0.566769	0.391445	1.21002	0.749279	0	0	0.663966	-0.403922	0.14441	1.30872	0.965319	0	0
60.71	0.497247	1.43833	1.21329	0.638621	0.311556	0.982126	0.635862	-0.153069	-0.209726	0.876187	-0.184303	0	0	0.58095	-0.403777	-0.324161	0.893691	-0.109543	0	0	-0.593838	-0.0414065	0.0271784	0.719488	-0.563775	0.386889	1.20892	0.753597	0	0	0.674913	-0.403895	0.144594	1.30825	0.967303	0	0
60.72	0.496269	1.4351	1.21337	0.639159	0.309487	0.977963	0.650906	-0.154317	-0.209257	0.89288	-0.179107	0	0	0.598392	-0.411628	-0.322861	0.915112	-0.105438	0	0	-0.603659	-0.0426118	0.0278057	0.726898	-0.560646	0.380881	1.20823	0.754815	0	0	0.685862	-0.403816	0.144739	1.30787	0.968665	0	0
60.73	0.493404	1.43202	1.21512	0.639708	0.307482	0.973738	0.665957	-0.15589	-0.208547	0.909628	-0.174611	0	0	0.615004	-0.419419	-0.322334	0.935766	-0.101607	0	0	-0.613373	-0.0441998	0.0284736	0.734265	-0.557495	0.374448	1.20754	0.755762	0	0	0.696892	-0.403631	0.144956	1.30723	0.970132	0	0
